<svg width="150" height="200" viewBox="0 0 150 200" fill="none" xmlns="http://www.w3.org/2000/svg">
<rect width="150" height="200" fill="white"/>
<path d="M78.0815 116.776H67.0923C67.1317 112.995 67.4665 109.903 68.0967 107.5C68.7663 105.058 69.8494 102.833 71.3462 100.824C72.8429 98.8154 74.832 96.5309 77.3135 93.9707C79.1253 92.1195 80.7796 90.3864 82.2764 88.7715C83.8125 87.1172 85.0532 85.3447 85.9985 83.4541C86.9438 81.5241 87.4165 79.2199 87.4165 76.5415C87.4165 73.8237 86.9242 71.4801 85.9395 69.5107C84.9941 67.5413 83.5762 66.0249 81.6855 64.9614C79.8343 63.8979 77.5301 63.3662 74.7729 63.3662C72.4884 63.3662 70.3221 63.7798 68.2739 64.6069C66.2257 65.4341 64.5715 66.7142 63.311 68.4473C62.0506 70.141 61.4007 72.3664 61.3613 75.1235H50.4312C50.5099 70.6727 51.6128 66.8521 53.7397 63.6616C55.9061 60.4712 58.8208 58.0291 62.4839 56.3354C66.147 54.6418 70.2433 53.7949 74.7729 53.7949C79.7752 53.7949 84.0291 54.7008 87.5347 56.5127C91.0796 58.3245 93.7777 60.9242 95.6289 64.3115C97.4801 67.6595 98.4058 71.6377 98.4058 76.2461C98.4058 79.791 97.6771 83.0602 96.2197 86.0537C94.8018 89.0078 92.9702 91.7847 90.7251 94.3843C88.48 96.9839 86.097 99.4653 83.5762 101.829C81.4098 103.837 79.9525 106.102 79.2041 108.623C78.4557 111.144 78.0815 113.862 78.0815 116.776ZM66.6196 135.505C66.6196 133.733 67.1711 132.236 68.2739 131.015C69.3768 129.794 70.972 129.184 73.0596 129.184C75.1865 129.184 76.8014 129.794 77.9043 131.015C79.0072 132.236 79.5586 133.733 79.5586 135.505C79.5586 137.199 79.0072 138.656 77.9043 139.877C76.8014 141.098 75.1865 141.709 73.0596 141.709C70.972 141.709 69.3768 141.098 68.2739 139.877C67.1711 138.656 66.6196 137.199 66.6196 135.505Z" fill="black"/>
</svg>
